<svg width="124" height="24" viewBox="0 0 124 24" fill="none" xmlns="http://www.w3.org/2000/svg">
<path d="M6.514 17.542L0.716 11.666L6.514 5.816H10.726L4.876 11.666L10.726 17.542H6.514ZM16.7706 21L13.0006 8.104H16.3026L18.5386 17.386L21.1386 8.104H24.8306L27.4306 17.386L29.6926 8.104H32.9946L29.1986 21H25.7406L22.9846 11.354L20.2286 21H16.7706ZM36.8883 6.102C36.2816 6.102 35.779 5.92 35.3803 5.556C34.999 5.192 34.8083 4.73267 34.8083 4.178C34.8083 3.62333 34.999 3.17267 35.3803 2.826C35.779 2.462 36.2816 2.28 36.8883 2.28C37.495 2.28 37.989 2.462 38.3703 2.826C38.769 3.17267 38.9683 3.62333 38.9683 4.178C38.9683 4.73267 38.769 5.192 38.3703 5.556C37.989 5.92 37.495 6.102 36.8883 6.102ZM35.2243 21V8.104H38.5523V21H35.2243ZM48.3439 21.312C47.0266 21.312 45.8653 21.026 44.8599 20.454C43.8546 19.882 43.0573 19.0847 42.4679 18.062C41.8959 17.0393 41.6099 15.8693 41.6099 14.552C41.6099 13.2347 41.8959 12.0647 42.4679 11.042C43.0573 10.0193 43.8546 9.222 44.8599 8.65C45.8653 8.078 47.0266 7.792 48.3439 7.792C49.9906 7.792 51.3773 8.22533 52.5039 9.092C53.6306 9.94133 54.3499 11.12 54.6619 12.628H51.1519C50.9786 12.004 50.6319 11.5187 50.1119 11.172C49.6093 10.808 49.0113 10.626 48.3179 10.626C47.3993 10.626 46.6193 10.9727 45.9779 11.666C45.3366 12.3593 45.0159 13.3213 45.0159 14.552C45.0159 15.7827 45.3366 16.7447 45.9779 17.438C46.6193 18.1313 47.3993 18.478 48.3179 18.478C49.0113 18.478 49.6093 18.3047 50.1119 17.958C50.6319 17.6113 50.9786 17.1173 51.1519 16.476H54.6619C54.3499 17.932 53.6306 19.102 52.5039 19.986C51.3773 20.87 49.9906 21.312 48.3439 21.312ZM56.5238 23.886L63.0238 0.798H66.2738L59.7478 23.886H56.5238ZM73.2176 21.312C72.0043 21.312 70.9209 21.0173 69.9676 20.428C69.0143 19.8387 68.2603 19.0327 67.7056 18.01C67.1509 16.9873 66.8736 15.826 66.8736 14.526C66.8736 13.226 67.1509 12.0733 67.7056 11.068C68.2603 10.0453 69.0143 9.248 69.9676 8.676C70.9209 8.08667 72.0043 7.792 73.2176 7.792C74.1883 7.792 75.0376 7.974 75.7656 8.338C76.4936 8.702 77.0829 9.21333 77.5336 9.872V2.28H80.8616V21H77.8976L77.5336 19.154C77.1176 19.726 76.5629 20.2287 75.8696 20.662C75.1936 21.0953 74.3096 21.312 73.2176 21.312ZM73.9196 18.4C74.9943 18.4 75.8696 18.0447 76.5456 17.334C77.2389 16.606 77.5856 15.6787 77.5856 14.552C77.5856 13.4253 77.2389 12.5067 76.5456 11.796C75.8696 11.068 74.9943 10.704 73.9196 10.704C72.8623 10.704 71.9869 11.0593 71.2936 11.77C70.6003 12.4807 70.2536 13.3993 70.2536 14.526C70.2536 15.6527 70.6003 16.58 71.2936 17.308C71.9869 18.036 72.8623 18.4 73.9196 18.4ZM90.5165 21.312C89.2165 21.312 88.0639 21.0347 87.0585 20.48C86.0532 19.9253 85.2645 19.1453 84.6925 18.14C84.1205 17.1347 83.8345 15.9733 83.8345 14.656C83.8345 13.3213 84.1119 12.134 84.6665 11.094C85.2385 10.054 86.0185 9.248 87.0065 8.676C88.0119 8.08667 89.1905 7.792 90.5425 7.792C91.8079 7.792 92.9259 8.06933 93.8965 8.624C94.8672 9.17867 95.6212 9.94133 96.1585 10.912C96.7132 11.8653 96.9905 12.9313 96.9905 14.11C96.9905 14.3007 96.9819 14.5 96.9645 14.708C96.9645 14.916 96.9559 15.1327 96.9385 15.358H87.1365C87.2059 16.3633 87.5525 17.152 88.1765 17.724C88.8179 18.296 89.5892 18.582 90.4905 18.582C91.1665 18.582 91.7299 18.4347 92.1805 18.14C92.6485 17.828 92.9952 17.4293 93.2205 16.944H96.6005C96.3579 17.7587 95.9505 18.504 95.3785 19.18C94.8239 19.8387 94.1305 20.3587 93.2985 20.74C92.4839 21.1213 91.5565 21.312 90.5165 21.312ZM90.5425 10.496C89.7279 10.496 89.0085 10.73 88.3845 11.198C87.7605 11.6487 87.3619 12.342 87.1885 13.278H93.6105C93.5585 12.4287 93.2465 11.7527 92.6745 11.25C92.1025 10.7473 91.3919 10.496 90.5425 10.496ZM102.766 21L98.0338 8.104H101.518L104.794 17.854L108.07 8.104H111.554L106.796 21H102.766ZM113.783 17.542L119.607 11.666L113.783 5.816H117.969L123.793 11.666L117.969 17.542H113.783Z" fill="#F9F9F9"/>
</svg>
